<mxfile host="app.diagrams.net" modified="2024-05-14T12:06:06.986Z" agent="Mozilla/5.0 (Macintosh; Intel Mac OS X 10_15_7) AppleWebKit/537.36 (KHTML, like Gecko) Chrome/123.0.0.0 Safari/537.36" etag="pErv8Wn66Nr7FRQafx5V" version="24.4.0" type="device">
  <diagram name="RAGBot" id="PySWI7dFrAsNCvFBGPsw">
    <mxGraphModel dx="954" dy="606" grid="1" gridSize="10" guides="1" tooltips="1" connect="1" arrows="1" fold="1" page="1" pageScale="1" pageWidth="850" pageHeight="1100" math="0" shadow="0">
      <root>
        <mxCell id="0" />
        <mxCell id="1" parent="0" />
        <mxCell id="IF9zBRpAFgyhNhvbQL1x-1" value="AWS Cloud" style="points=[[0,0],[0.25,0],[0.5,0],[0.75,0],[1,0],[1,0.25],[1,0.5],[1,0.75],[1,1],[0.75,1],[0.5,1],[0.25,1],[0,1],[0,0.75],[0,0.5],[0,0.25]];outlineConnect=0;gradientColor=none;html=1;whiteSpace=wrap;fontSize=12;fontStyle=0;container=1;pointerEvents=0;collapsible=0;recursiveResize=0;shape=mxgraph.aws4.group;grIcon=mxgraph.aws4.group_aws_cloud_alt;strokeColor=#232F3E;fillColor=none;verticalAlign=top;align=left;spacingLeft=30;fontColor=#232F3E;dashed=0;" vertex="1" parent="1">
          <mxGeometry x="90" y="40" width="720" height="470" as="geometry" />
        </mxCell>
        <mxCell id="IF9zBRpAFgyhNhvbQL1x-2" value="Region" style="points=[[0,0],[0.25,0],[0.5,0],[0.75,0],[1,0],[1,0.25],[1,0.5],[1,0.75],[1,1],[0.75,1],[0.5,1],[0.25,1],[0,1],[0,0.75],[0,0.5],[0,0.25]];outlineConnect=0;gradientColor=none;html=1;whiteSpace=wrap;fontSize=12;fontStyle=0;container=1;pointerEvents=0;collapsible=0;recursiveResize=0;shape=mxgraph.aws4.group;grIcon=mxgraph.aws4.group_region;strokeColor=#00A4A6;fillColor=none;verticalAlign=top;align=left;spacingLeft=30;fontColor=#147EBA;dashed=1;" vertex="1" parent="IF9zBRpAFgyhNhvbQL1x-1">
          <mxGeometry x="30" y="30" width="670" height="420" as="geometry" />
        </mxCell>
        <mxCell id="IF9zBRpAFgyhNhvbQL1x-4" value="" style="sketch=0;points=[[0,0,0],[0.25,0,0],[0.5,0,0],[0.75,0,0],[1,0,0],[0,1,0],[0.25,1,0],[0.5,1,0],[0.75,1,0],[1,1,0],[0,0.25,0],[0,0.5,0],[0,0.75,0],[1,0.25,0],[1,0.5,0],[1,0.75,0]];outlineConnect=0;fontColor=#232F3E;fillColor=#7AA116;strokeColor=#ffffff;dashed=0;verticalLabelPosition=bottom;verticalAlign=top;align=center;html=1;fontSize=12;fontStyle=0;aspect=fixed;shape=mxgraph.aws4.resourceIcon;resIcon=mxgraph.aws4.s3;" vertex="1" parent="IF9zBRpAFgyhNhvbQL1x-2">
          <mxGeometry x="140" y="60" width="50" height="50" as="geometry" />
        </mxCell>
        <mxCell id="IF9zBRpAFgyhNhvbQL1x-5" value="" style="outlineConnect=0;dashed=0;verticalLabelPosition=bottom;verticalAlign=top;align=center;html=1;shape=mxgraph.aws3.lambda_function;fillColor=#F58534;gradientColor=none;" vertex="1" parent="IF9zBRpAFgyhNhvbQL1x-2">
          <mxGeometry x="310" y="60" width="50" height="50" as="geometry" />
        </mxCell>
        <mxCell id="IF9zBRpAFgyhNhvbQL1x-6" value="" style="sketch=0;points=[[0,0,0],[0.25,0,0],[0.5,0,0],[0.75,0,0],[1,0,0],[0,1,0],[0.25,1,0],[0.5,1,0],[0.75,1,0],[1,1,0],[0,0.25,0],[0,0.5,0],[0,0.75,0],[1,0.25,0],[1,0.5,0],[1,0.75,0]];outlineConnect=0;fontColor=#232F3E;fillColor=#01A88D;strokeColor=#ffffff;dashed=0;verticalLabelPosition=bottom;verticalAlign=top;align=center;html=1;fontSize=12;fontStyle=0;aspect=fixed;shape=mxgraph.aws4.resourceIcon;resIcon=mxgraph.aws4.bedrock;" vertex="1" parent="IF9zBRpAFgyhNhvbQL1x-2">
          <mxGeometry x="310" y="150" width="50" height="50" as="geometry" />
        </mxCell>
        <mxCell id="IF9zBRpAFgyhNhvbQL1x-7" value="" style="sketch=0;points=[[0,0,0],[0.25,0,0],[0.5,0,0],[0.75,0,0],[1,0,0],[0,1,0],[0.25,1,0],[0.5,1,0],[0.75,1,0],[1,1,0],[0,0.25,0],[0,0.5,0],[0,0.75,0],[1,0.25,0],[1,0.5,0],[1,0.75,0]];outlineConnect=0;fontColor=#232F3E;fillColor=#7AA116;strokeColor=#ffffff;dashed=0;verticalLabelPosition=bottom;verticalAlign=top;align=center;html=1;fontSize=12;fontStyle=0;aspect=fixed;shape=mxgraph.aws4.resourceIcon;resIcon=mxgraph.aws4.s3;" vertex="1" parent="IF9zBRpAFgyhNhvbQL1x-2">
          <mxGeometry x="480" y="60" width="50" height="50" as="geometry" />
        </mxCell>
        <mxCell id="IF9zBRpAFgyhNhvbQL1x-8" style="edgeStyle=orthogonalEdgeStyle;rounded=0;orthogonalLoop=1;jettySize=auto;html=1;entryX=0;entryY=0.5;entryDx=0;entryDy=0;entryPerimeter=0;" edge="1" parent="IF9zBRpAFgyhNhvbQL1x-2" source="IF9zBRpAFgyhNhvbQL1x-4" target="IF9zBRpAFgyhNhvbQL1x-5">
          <mxGeometry relative="1" as="geometry" />
        </mxCell>
        <mxCell id="IF9zBRpAFgyhNhvbQL1x-9" style="edgeStyle=orthogonalEdgeStyle;rounded=0;orthogonalLoop=1;jettySize=auto;html=1;entryX=0;entryY=0.5;entryDx=0;entryDy=0;entryPerimeter=0;" edge="1" parent="IF9zBRpAFgyhNhvbQL1x-2" source="IF9zBRpAFgyhNhvbQL1x-5" target="IF9zBRpAFgyhNhvbQL1x-7">
          <mxGeometry relative="1" as="geometry" />
        </mxCell>
        <mxCell id="IF9zBRpAFgyhNhvbQL1x-10" style="edgeStyle=orthogonalEdgeStyle;rounded=0;orthogonalLoop=1;jettySize=auto;html=1;entryX=0.5;entryY=0;entryDx=0;entryDy=0;entryPerimeter=0;" edge="1" parent="IF9zBRpAFgyhNhvbQL1x-2" source="IF9zBRpAFgyhNhvbQL1x-5" target="IF9zBRpAFgyhNhvbQL1x-6">
          <mxGeometry relative="1" as="geometry" />
        </mxCell>
        <mxCell id="IF9zBRpAFgyhNhvbQL1x-13" value="" style="shape=image;verticalLabelPosition=bottom;labelBackgroundColor=default;verticalAlign=top;aspect=fixed;imageAspect=0;image=https://deepsense.ai/wp-content/uploads/2023/10/LangChain-announces-partnership-with-deepsense.jpeg;" vertex="1" parent="IF9zBRpAFgyhNhvbQL1x-2">
          <mxGeometry x="370" y="140" width="78.09" height="30" as="geometry" />
        </mxCell>
        <mxCell id="IF9zBRpAFgyhNhvbQL1x-18" style="edgeStyle=orthogonalEdgeStyle;rounded=0;orthogonalLoop=1;jettySize=auto;html=1;" edge="1" parent="IF9zBRpAFgyhNhvbQL1x-2" source="IF9zBRpAFgyhNhvbQL1x-14" target="IF9zBRpAFgyhNhvbQL1x-17">
          <mxGeometry relative="1" as="geometry" />
        </mxCell>
        <mxCell id="IF9zBRpAFgyhNhvbQL1x-14" value="" style="sketch=0;points=[[0,0,0],[0.25,0,0],[0.5,0,0],[0.75,0,0],[1,0,0],[0,1,0],[0.25,1,0],[0.5,1,0],[0.75,1,0],[1,1,0],[0,0.25,0],[0,0.5,0],[0,0.75,0],[1,0.25,0],[1,0.5,0],[1,0.75,0]];outlineConnect=0;fontColor=#232F3E;fillColor=#DD344C;strokeColor=#ffffff;dashed=0;verticalLabelPosition=bottom;verticalAlign=top;align=center;html=1;fontSize=12;fontStyle=0;aspect=fixed;shape=mxgraph.aws4.resourceIcon;resIcon=mxgraph.aws4.amplify;" vertex="1" parent="IF9zBRpAFgyhNhvbQL1x-2">
          <mxGeometry x="140" y="270" width="50" height="50" as="geometry" />
        </mxCell>
        <mxCell id="IF9zBRpAFgyhNhvbQL1x-19" style="edgeStyle=orthogonalEdgeStyle;rounded=0;orthogonalLoop=1;jettySize=auto;html=1;" edge="1" parent="IF9zBRpAFgyhNhvbQL1x-2" source="IF9zBRpAFgyhNhvbQL1x-17" target="IF9zBRpAFgyhNhvbQL1x-6">
          <mxGeometry relative="1" as="geometry" />
        </mxCell>
        <mxCell id="IF9zBRpAFgyhNhvbQL1x-17" value="" style="outlineConnect=0;dashed=0;verticalLabelPosition=bottom;verticalAlign=top;align=center;html=1;shape=mxgraph.aws3.lambda_function;fillColor=#F58534;gradientColor=none;" vertex="1" parent="IF9zBRpAFgyhNhvbQL1x-2">
          <mxGeometry x="310" y="270" width="50" height="50" as="geometry" />
        </mxCell>
        <mxCell id="IF9zBRpAFgyhNhvbQL1x-20" style="edgeStyle=orthogonalEdgeStyle;rounded=0;orthogonalLoop=1;jettySize=auto;html=1;entryX=0.5;entryY=1;entryDx=0;entryDy=0;entryPerimeter=0;" edge="1" parent="IF9zBRpAFgyhNhvbQL1x-2" source="IF9zBRpAFgyhNhvbQL1x-17" target="IF9zBRpAFgyhNhvbQL1x-7">
          <mxGeometry relative="1" as="geometry" />
        </mxCell>
        <mxCell id="IF9zBRpAFgyhNhvbQL1x-21" style="edgeStyle=orthogonalEdgeStyle;rounded=0;orthogonalLoop=1;jettySize=auto;html=1;entryX=1;entryY=0.5;entryDx=0;entryDy=0;entryPerimeter=0;" edge="1" parent="IF9zBRpAFgyhNhvbQL1x-2" source="IF9zBRpAFgyhNhvbQL1x-17" target="IF9zBRpAFgyhNhvbQL1x-14">
          <mxGeometry relative="1" as="geometry" />
        </mxCell>
        <mxCell id="IF9zBRpAFgyhNhvbQL1x-25" value="VPC" style="points=[[0,0],[0.25,0],[0.5,0],[0.75,0],[1,0],[1,0.25],[1,0.5],[1,0.75],[1,1],[0.75,1],[0.5,1],[0.25,1],[0,1],[0,0.75],[0,0.5],[0,0.25]];outlineConnect=0;gradientColor=none;html=1;whiteSpace=wrap;fontSize=12;fontStyle=0;container=1;pointerEvents=0;collapsible=0;recursiveResize=0;shape=mxgraph.aws4.group;grIcon=mxgraph.aws4.group_vpc2;strokeColor=#8C4FFF;fillColor=none;verticalAlign=top;align=left;spacingLeft=30;fontColor=#AAB7B8;dashed=0;" vertex="1" parent="IF9zBRpAFgyhNhvbQL1x-2">
          <mxGeometry x="100" y="230" width="370" height="140" as="geometry" />
        </mxCell>
        <mxCell id="IF9zBRpAFgyhNhvbQL1x-30" value="Query the documents" style="text;html=1;align=center;verticalAlign=middle;whiteSpace=wrap;rounded=0;" vertex="1" parent="IF9zBRpAFgyhNhvbQL1x-25">
          <mxGeometry x="100" y="30" width="110" height="30" as="geometry" />
        </mxCell>
        <mxCell id="IF9zBRpAFgyhNhvbQL1x-33" value="Invoke LLM" style="text;html=1;align=center;verticalAlign=middle;whiteSpace=wrap;rounded=0;" vertex="1" parent="IF9zBRpAFgyhNhvbQL1x-25">
          <mxGeometry x="220.00000000000003" width="110" height="30" as="geometry" />
        </mxCell>
        <mxCell id="IF9zBRpAFgyhNhvbQL1x-34" value="LLM response" style="text;html=1;align=center;verticalAlign=middle;whiteSpace=wrap;rounded=0;" vertex="1" parent="IF9zBRpAFgyhNhvbQL1x-25">
          <mxGeometry x="100" y="80" width="110" height="30" as="geometry" />
        </mxCell>
        <mxCell id="IF9zBRpAFgyhNhvbQL1x-26" value="Trigger when the document is added" style="text;html=1;align=center;verticalAlign=middle;whiteSpace=wrap;rounded=0;" vertex="1" parent="IF9zBRpAFgyhNhvbQL1x-2">
          <mxGeometry x="195" y="50" width="110" height="30" as="geometry" />
        </mxCell>
        <mxCell id="IF9zBRpAFgyhNhvbQL1x-27" value="Generate embeddings" style="text;html=1;align=center;verticalAlign=middle;whiteSpace=wrap;rounded=0;" vertex="1" parent="IF9zBRpAFgyhNhvbQL1x-2">
          <mxGeometry x="220" y="110" width="110" height="30" as="geometry" />
        </mxCell>
        <mxCell id="IF9zBRpAFgyhNhvbQL1x-28" value="Save vector index" style="text;html=1;align=center;verticalAlign=middle;whiteSpace=wrap;rounded=0;" vertex="1" parent="IF9zBRpAFgyhNhvbQL1x-2">
          <mxGeometry x="360" y="50" width="110" height="30" as="geometry" />
        </mxCell>
        <mxCell id="IF9zBRpAFgyhNhvbQL1x-29" value="" style="shape=image;verticalLabelPosition=bottom;labelBackgroundColor=default;verticalAlign=top;aspect=fixed;imageAspect=0;image=https://tws.twcc.ai/wp-content/uploads/2023/11/LLM-ICONS-05.png;" vertex="1" parent="IF9zBRpAFgyhNhvbQL1x-2">
          <mxGeometry x="380" y="180" width="30" height="30" as="geometry" />
        </mxCell>
        <mxCell id="IF9zBRpAFgyhNhvbQL1x-31" value="Get vector embeddings" style="text;html=1;align=center;verticalAlign=middle;whiteSpace=wrap;rounded=0;" vertex="1" parent="IF9zBRpAFgyhNhvbQL1x-2">
          <mxGeometry x="490" y="195" width="110" height="30" as="geometry" />
        </mxCell>
        <mxCell id="IF9zBRpAFgyhNhvbQL1x-22" value="" style="aspect=fixed;sketch=0;html=1;dashed=0;whitespace=wrap;verticalLabelPosition=bottom;verticalAlign=top;fillColor=#2875E2;strokeColor=#ffffff;points=[[0.005,0.63,0],[0.1,0.2,0],[0.9,0.2,0],[0.5,0,0],[0.995,0.63,0],[0.72,0.99,0],[0.5,1,0],[0.28,0.99,0]];shape=mxgraph.kubernetes.icon2;kubernetesLabel=1;prIcon=user" vertex="1" parent="1">
          <mxGeometry x="20" y="341" width="50" height="48" as="geometry" />
        </mxCell>
        <mxCell id="IF9zBRpAFgyhNhvbQL1x-23" style="edgeStyle=orthogonalEdgeStyle;rounded=0;orthogonalLoop=1;jettySize=auto;html=1;entryX=0;entryY=0.5;entryDx=0;entryDy=0;entryPerimeter=0;" edge="1" parent="1" source="IF9zBRpAFgyhNhvbQL1x-22" target="IF9zBRpAFgyhNhvbQL1x-14">
          <mxGeometry relative="1" as="geometry" />
        </mxCell>
      </root>
    </mxGraphModel>
  </diagram>
</mxfile>
